<svg width="125" height="125" viewBox="0 0 125 125" fill="none" xmlns="http://www.w3.org/2000/svg">
<g clip-path="url(#clip0_532_23423)">
<circle cx="38.3222" cy="62.3222" r="21.8222" fill="white" stroke="#4A5056"/>
<path d="M36.4761 50.0703V64.672H40.1685" stroke="#4A5056" stroke-linecap="round" stroke-linejoin="round"/>
<path d="M50.9097 56.1138C50.9097 54.0745 49.2565 52.4214 47.2173 52.4214C45.178 52.4214 43.5249 54.0745 43.5249 56.1138" stroke="#4A5056" stroke-linecap="round"/>
<path d="M32.7837 56.1138C32.7837 54.0745 31.1306 52.4214 29.0913 52.4214C27.0521 52.4214 25.3989 54.0745 25.3989 56.1138" stroke="#4A5056" stroke-linecap="round"/>
<path d="M29.0915 69.2035C29.0915 74.2089 33.1492 78.2666 38.1546 78.2666C43.1601 78.2666 47.2178 74.2089 47.2178 69.2035" stroke="#4A5056" stroke-linecap="round"/>
<circle cx="85.6777" cy="62.3222" r="21.8222" fill="white" stroke="#4A5056"/>
<path d="M83.8311 50.0703V64.672H87.5234" stroke="#4A5056" stroke-linecap="round" stroke-linejoin="round"/>
<path d="M72.7544 52.4209C72.7544 54.4601 74.4075 56.1133 76.4468 56.1133C78.486 56.1133 80.1392 54.4601 80.1392 52.4209" stroke="#4A5056" stroke-linecap="round"/>
<path d="M90.8804 52.4209C90.8804 54.4601 92.5335 56.1133 94.5727 56.1133C96.612 56.1133 98.2651 54.4601 98.2651 52.4209" stroke="#4A5056" stroke-linecap="round"/>
<path d="M94.5731 78.2663C94.5731 73.2608 90.5154 69.2031 85.5099 69.2031C80.5045 69.2031 76.4468 73.2608 76.4468 78.2663" stroke="#4A5056" stroke-linecap="round"/>
</g>
<defs>
<clipPath id="clip0_532_23423">
<rect width="125" height="125" fill="white"/>
</clipPath>
</defs>
</svg>
