<svg width="125" height="125" viewBox="0 0 125 125" fill="none" xmlns="http://www.w3.org/2000/svg">
<g clip-path="url(#clip0_532_23480)">
<rect x="37" y="38" width="15" height="3" rx="1" fill="white"/>
<path d="M34.5674 42.6099C34.5674 41.7814 35.239 41.1099 36.0674 41.1099H52.6809C53.5093 41.1099 54.1809 41.7814 54.1809 42.6099V78.7602H34.5674V42.6099Z" fill="white" stroke="#4A5056"/>
<path d="M15 79.0024H57" stroke="#4A5056" stroke-linecap="round"/>
<path d="M20.1533 78.7451L20.1533 74.8801" stroke="#4A5056" stroke-linecap="round"/>
<path d="M27.8833 78.7451L27.8833 74.8801" stroke="#4A5056" stroke-linecap="round"/>
<path d="M37.8018 48.6206L37.8018 46.0439" stroke="#4A5056" stroke-linecap="round"/>
<path d="M51.6382 48.6206L51.6382 46.0439" stroke="#4A5056" stroke-linecap="round"/>
<path d="M47.0259 48.6206L47.0259 46.0439" stroke="#4A5056" stroke-linecap="round"/>
<path d="M42.4141 48.6206L42.4141 46.0439" stroke="#4A5056" stroke-linecap="round"/>
<path d="M37.8018 62.0186L37.8018 59.4419" stroke="#4A5056" stroke-linecap="round"/>
<path d="M51.6382 62.0186L51.6382 59.4419" stroke="#4A5056" stroke-linecap="round"/>
<path d="M47.0259 62.0186L47.0259 59.4419" stroke="#4A5056" stroke-linecap="round"/>
<path d="M42.4141 62.0186L42.4141 59.4419" stroke="#4A5056" stroke-linecap="round"/>
<path d="M37.3403 75.417L37.3403 72.8403" stroke="#4A5056" stroke-linecap="round"/>
<path d="M51.1768 75.417L51.1768 72.8403" stroke="#4A5056" stroke-linecap="round"/>
<path d="M46.5645 75.417L46.5645 72.8403" stroke="#4A5056" stroke-linecap="round"/>
<path d="M41.9526 75.417L41.9526 72.8403" stroke="#4A5056" stroke-linecap="round"/>
<circle cx="20.1531" cy="72.0456" r="2.59202" fill="white" stroke="#4A5056"/>
<circle cx="20.1531" cy="67.4075" r="1.56135" fill="white" stroke="#4A5056"/>
<circle cx="27.8835" cy="72.0456" r="2.59202" fill="white" stroke="#4A5056"/>
<path d="M37.3403 40.6809V39C37.3403 38.4477 37.788 38 38.3403 38H50.6382C51.1905 38 51.6382 38.4477 51.6382 39V40.6809" stroke="#4A5056"/>
<circle cx="101.957" cy="42.4952" r="3.99521" fill="white" stroke="#4A5056"/>
<path d="M86.6434 43.3652C87.2207 42.3652 88.6641 42.3652 89.2414 43.3652L108.677 77.0288C109.254 78.0288 108.533 79.2788 107.378 79.2788H68.5067C67.352 79.2788 66.6303 78.0288 67.2077 77.0288L86.6434 43.3652Z" fill="white" stroke="#4A5056"/>
<path d="M78.9521 56.2454L82.3078 57.8784C82.5899 58.0157 82.9201 58.0126 83.1996 57.8701L87.4723 55.6919C87.7666 55.5419 88.1159 55.5469 88.4058 55.7052L92.3346 57.8511C92.6165 58.0051 92.9553 58.0143 93.2452 57.8758L96.933 56.1132" stroke="#4A5056"/>
</g>
<defs>
<clipPath id="clip0_532_23480">
<rect width="125" height="125" fill="white"/>
</clipPath>
</defs>
</svg>
