<svg width="125" height="125" viewBox="0 0 125 125" fill="none" xmlns="http://www.w3.org/2000/svg">
<g clip-path="url(#clip0_532_23568)">
<path d="M26.8036 57.408C27.289 57.408 27.7423 57.48 28.1636 57.624C28.585 57.768 28.9476 57.9787 29.2516 58.256C29.561 58.528 29.8036 58.8613 29.9796 59.256C30.1556 59.6507 30.2436 60.0987 30.2436 60.6C30.2436 61.0267 30.1796 61.4213 30.0516 61.784C29.9236 62.1467 29.7503 62.496 29.5316 62.832C29.313 63.1627 29.0596 63.4853 28.7716 63.8C28.489 64.1093 28.1876 64.4267 27.8676 64.752L24.8516 67.84C25.065 67.7813 25.281 67.736 25.4996 67.704C25.7183 67.6667 25.929 67.648 26.1316 67.648H29.9716C30.1263 67.648 30.249 67.6933 30.3396 67.784C30.4303 67.8747 30.4756 67.992 30.4756 68.136V69H22.8276V68.512C22.8276 68.4107 22.8463 68.3067 22.8836 68.2C22.9263 68.0933 22.993 67.9947 23.0836 67.904L26.7556 64.216C27.0596 63.9067 27.337 63.6107 27.5876 63.328C27.8383 63.04 28.0516 62.752 28.2276 62.464C28.409 62.176 28.5476 61.8853 28.6436 61.592C28.7396 61.2933 28.7876 60.976 28.7876 60.64C28.7876 60.304 28.7343 60.0107 28.6276 59.76C28.521 59.504 28.3743 59.2933 28.1876 59.128C28.001 58.9627 27.7823 58.84 27.5316 58.76C27.281 58.6747 27.0116 58.632 26.7236 58.632C26.4356 58.632 26.169 58.6747 25.9236 58.76C25.6783 58.8453 25.4596 58.9653 25.2676 59.12C25.081 59.2693 24.921 59.448 24.7876 59.656C24.6596 59.864 24.569 60.0933 24.5156 60.344C24.473 60.4987 24.409 60.6107 24.3236 60.68C24.2383 60.7493 24.1263 60.784 23.9876 60.784C23.961 60.784 23.9316 60.784 23.8996 60.784C23.873 60.7787 23.841 60.7733 23.8036 60.768L23.0596 60.64C23.1343 60.1173 23.2783 59.656 23.4916 59.256C23.705 58.8507 23.9743 58.512 24.2996 58.24C24.6303 57.968 25.0063 57.7627 25.4276 57.624C25.8543 57.48 26.313 57.408 26.8036 57.408ZM32.6689 68.016C32.6689 67.8933 32.6902 67.7787 32.7329 67.672C32.7809 67.56 32.8449 67.464 32.9249 67.384C33.0102 67.2987 33.1115 67.232 33.2289 67.184C33.3462 67.136 33.4742 67.112 33.6129 67.112C33.7729 67.112 33.9142 67.1413 34.0369 67.2C34.1649 67.2587 34.2689 67.3413 34.3489 67.448C34.4342 67.5493 34.4982 67.6693 34.5409 67.808C34.5835 67.9413 34.6049 68.088 34.6049 68.248C34.6049 68.488 34.5702 68.7387 34.5009 69C34.4315 69.256 34.3329 69.5093 34.2049 69.76C34.0769 70.016 33.9169 70.264 33.7249 70.504C33.5382 70.744 33.3249 70.9653 33.0849 71.168L32.8449 70.936C32.7755 70.872 32.7409 70.7973 32.7409 70.712C32.7409 70.6427 32.7782 70.5707 32.8529 70.496C32.9062 70.4373 32.9729 70.3573 33.0529 70.256C33.1382 70.16 33.2235 70.048 33.3089 69.92C33.3942 69.792 33.4715 69.6507 33.5409 69.496C33.6155 69.3413 33.6689 69.176 33.7009 69H33.5969C33.4582 69 33.3329 68.976 33.2209 68.928C33.1089 68.88 33.0102 68.8133 32.9249 68.728C32.8449 68.6373 32.7809 68.5333 32.7329 68.416C32.6902 68.2933 32.6689 68.16 32.6689 68.016ZM46.9053 64.864H48.6412V65.68C48.6412 65.7653 48.6146 65.8373 48.5612 65.896C48.5133 65.9547 48.4359 65.984 48.3293 65.984H46.9053V69H45.6493V65.984H40.5692C40.4626 65.984 40.3692 65.9547 40.2892 65.896C40.2146 65.832 40.1666 65.7547 40.1452 65.664L40.0012 64.936L45.5773 57.536H46.9053V64.864ZM45.6493 60.136C45.6493 59.9973 45.6519 59.848 45.6572 59.688C45.6679 59.528 45.6866 59.3627 45.7132 59.192L41.5452 64.864H45.6493V60.136ZM50.3545 68.016C50.3545 67.8933 50.3758 67.7787 50.4185 67.672C50.4665 67.56 50.5305 67.464 50.6105 67.384C50.6958 67.2987 50.7972 67.232 50.9145 67.184C51.0318 67.136 51.1598 67.112 51.2985 67.112C51.4585 67.112 51.5998 67.1413 51.7225 67.2C51.8505 67.2587 51.9545 67.3413 52.0345 67.448C52.1198 67.5493 52.1838 67.6693 52.2265 67.808C52.2692 67.9413 52.2905 68.088 52.2905 68.248C52.2905 68.488 52.2558 68.7387 52.1865 69C52.1172 69.256 52.0185 69.5093 51.8905 69.76C51.7625 70.016 51.6025 70.264 51.4105 70.504C51.2238 70.744 51.0105 70.9653 50.7705 71.168L50.5305 70.936C50.4612 70.872 50.4265 70.7973 50.4265 70.712C50.4265 70.6427 50.4638 70.5707 50.5385 70.496C50.5918 70.4373 50.6585 70.3573 50.7385 70.256C50.8238 70.16 50.9092 70.048 50.9945 69.92C51.0798 69.792 51.1572 69.6507 51.2265 69.496C51.3012 69.3413 51.3545 69.176 51.3865 69H51.2825C51.1438 69 51.0185 68.976 50.9065 68.928C50.7945 68.88 50.6958 68.8133 50.6105 68.728C50.5305 68.6373 50.4665 68.5333 50.4185 68.416C50.3758 68.2933 50.3545 68.16 50.3545 68.016ZM62.5669 61.976C63.0255 61.976 63.4602 62.0533 63.8709 62.208C64.2815 62.3573 64.6415 62.5787 64.9509 62.872C65.2602 63.16 65.5055 63.5173 65.6869 63.944C65.8682 64.3653 65.9589 64.848 65.9589 65.392C65.9589 65.92 65.8629 66.4107 65.6709 66.864C65.4789 67.3173 65.2095 67.712 64.8629 68.048C64.5215 68.384 64.1082 68.648 63.6229 68.84C63.1375 69.032 62.6042 69.128 62.0229 69.128C61.4469 69.128 60.9242 69.0373 60.4549 68.856C59.9909 68.6693 59.5935 68.408 59.2629 68.072C58.9322 67.7307 58.6762 67.32 58.4949 66.84C58.3189 66.3547 58.2309 65.8133 58.2309 65.216C58.2309 64.7147 58.3429 64.1813 58.5669 63.616C58.7909 63.0507 59.1455 62.4427 59.6309 61.792L62.5349 57.88C62.6095 57.784 62.7135 57.704 62.8469 57.64C62.9802 57.5707 63.1322 57.536 63.3029 57.536H64.5669L60.5909 62.568C60.8629 62.3813 61.1642 62.2373 61.4949 62.136C61.8255 62.0293 62.1829 61.976 62.5669 61.976ZM59.6069 65.464C59.6069 65.832 59.6602 66.168 59.7669 66.472C59.8735 66.776 60.0282 67.0373 60.2309 67.256C60.4389 67.4747 60.6895 67.6453 60.9829 67.768C61.2815 67.8853 61.6202 67.944 61.9989 67.944C62.3829 67.944 62.7295 67.8827 63.0389 67.76C63.3482 67.6373 63.6122 67.4667 63.8309 67.248C64.0549 67.0293 64.2255 66.7707 64.3429 66.472C64.4655 66.1733 64.5269 65.848 64.5269 65.496C64.5269 65.1227 64.4682 64.7867 64.3509 64.488C64.2335 64.184 64.0682 63.928 63.8549 63.72C63.6415 63.5067 63.3855 63.344 63.0869 63.232C62.7882 63.12 62.4602 63.064 62.1029 63.064C61.7189 63.064 61.3722 63.1307 61.0629 63.264C60.7535 63.392 60.4895 63.568 60.2709 63.792C60.0575 64.0107 59.8922 64.2667 59.7749 64.56C59.6629 64.848 59.6069 65.1493 59.6069 65.464ZM68.0401 68.016C68.0401 67.8933 68.0615 67.7787 68.1041 67.672C68.1521 67.56 68.2161 67.464 68.2961 67.384C68.3815 67.2987 68.4828 67.232 68.6001 67.184C68.7175 67.136 68.8455 67.112 68.9841 67.112C69.1441 67.112 69.2855 67.1413 69.4081 67.2C69.5361 67.2587 69.6401 67.3413 69.7201 67.448C69.8055 67.5493 69.8695 67.6693 69.9121 67.808C69.9548 67.9413 69.9761 68.088 69.9761 68.248C69.9761 68.488 69.9415 68.7387 69.8721 69C69.8028 69.256 69.7041 69.5093 69.5761 69.76C69.4481 70.016 69.2881 70.264 69.0961 70.504C68.9095 70.744 68.6961 70.9653 68.4561 71.168L68.2161 70.936C68.1468 70.872 68.1121 70.7973 68.1121 70.712C68.1121 70.6427 68.1495 70.5707 68.2241 70.496C68.2775 70.4373 68.3441 70.3573 68.4241 70.256C68.5095 70.16 68.5948 70.048 68.6801 69.92C68.7655 69.792 68.8428 69.6507 68.9121 69.496C68.9868 69.3413 69.0401 69.176 69.0721 69H68.9681C68.8295 69 68.7041 68.976 68.5921 68.928C68.4801 68.88 68.3815 68.8133 68.2961 68.728C68.2161 68.6373 68.1521 68.5333 68.1041 68.416C68.0615 68.2933 68.0401 68.16 68.0401 68.016ZM79.6845 69.128C79.1138 69.128 78.5912 69.0533 78.1165 68.904C77.6418 68.7493 77.2338 68.5307 76.8925 68.248C76.5512 67.9653 76.2872 67.624 76.1005 67.224C75.9138 66.8187 75.8205 66.3653 75.8205 65.864C75.8205 65.128 76.0125 64.5227 76.3965 64.048C76.7805 63.568 77.3298 63.2267 78.0445 63.024C77.4418 62.8 76.9858 62.4667 76.6765 62.024C76.3725 61.576 76.2205 61.0427 76.2205 60.424C76.2205 60.0027 76.3032 59.608 76.4685 59.24C76.6338 58.872 76.8685 58.552 77.1725 58.28C77.4765 58.008 77.8392 57.7947 78.2605 57.64C78.6872 57.4853 79.1618 57.408 79.6845 57.408C80.2018 57.408 80.6738 57.4853 81.1005 57.64C81.5272 57.7947 81.8925 58.008 82.1965 58.28C82.5005 58.552 82.7352 58.872 82.9005 59.24C83.0658 59.608 83.1485 60.0027 83.1485 60.424C83.1485 61.0427 82.9938 61.576 82.6845 62.024C82.3752 62.4667 81.9218 62.8 81.3245 63.024C82.0392 63.2267 82.5885 63.568 82.9725 64.048C83.3565 64.5227 83.5485 65.128 83.5485 65.864C83.5485 66.3653 83.4525 66.8187 83.2605 67.224C83.0738 67.624 82.8098 67.9653 82.4685 68.248C82.1325 68.5307 81.7272 68.7493 81.2525 68.904C80.7778 69.0533 80.2552 69.128 79.6845 69.128ZM79.6845 67.992C80.0578 67.992 80.3912 67.9413 80.6845 67.84C80.9832 67.7333 81.2338 67.5867 81.4365 67.4C81.6445 67.208 81.8018 66.9813 81.9085 66.72C82.0205 66.4533 82.0765 66.16 82.0765 65.84C82.0765 65.4453 82.0098 65.1093 81.8765 64.832C81.7485 64.5493 81.5725 64.32 81.3485 64.144C81.1298 63.968 80.8765 63.84 80.5885 63.76C80.3005 63.6747 79.9992 63.632 79.6845 63.632C79.3698 63.632 79.0685 63.6747 78.7805 63.76C78.4925 63.84 78.2365 63.968 78.0125 64.144C77.7938 64.32 77.6178 64.5493 77.4845 64.832C77.3565 65.1093 77.2925 65.4453 77.2925 65.84C77.2925 66.16 77.3458 66.4533 77.4525 66.72C77.5645 66.9813 77.7218 67.208 77.9245 67.4C78.1325 67.5867 78.3832 67.7333 78.6765 67.84C78.9752 67.9413 79.3112 67.992 79.6845 67.992ZM79.6845 62.488C80.0578 62.488 80.3752 62.432 80.6365 62.32C80.9032 62.2027 81.1192 62.0507 81.2845 61.864C81.4498 61.672 81.5698 61.4533 81.6445 61.208C81.7192 60.9627 81.7565 60.7093 81.7565 60.448C81.7565 60.1813 81.7112 59.9307 81.6205 59.696C81.5352 59.4613 81.4045 59.256 81.2285 59.08C81.0578 58.904 80.8418 58.7653 80.5805 58.664C80.3245 58.5627 80.0258 58.512 79.6845 58.512C79.3432 58.512 79.0418 58.5627 78.7805 58.664C78.5245 58.7653 78.3085 58.904 78.1325 59.08C77.9618 59.256 77.8312 59.4613 77.7405 59.696C77.6552 59.9307 77.6125 60.1813 77.6125 60.448C77.6125 60.7093 77.6498 60.9627 77.7245 61.208C77.7992 61.4533 77.9192 61.672 78.0845 61.864C78.2498 62.0507 78.4632 62.2027 78.7245 62.32C78.9912 62.432 79.3112 62.488 79.6845 62.488ZM85.7258 68.016C85.7258 67.8933 85.7471 67.7787 85.7898 67.672C85.8378 67.56 85.9018 67.464 85.9818 67.384C86.0671 67.2987 86.1684 67.232 86.2858 67.184C86.4031 67.136 86.5311 67.112 86.6698 67.112C86.8298 67.112 86.9711 67.1413 87.0938 67.2C87.2218 67.2587 87.3258 67.3413 87.4058 67.448C87.4911 67.5493 87.5551 67.6693 87.5978 67.808C87.6404 67.9413 87.6618 68.088 87.6618 68.248C87.6618 68.488 87.6271 68.7387 87.5578 69C87.4884 69.256 87.3898 69.5093 87.2618 69.76C87.1338 70.016 86.9738 70.264 86.7818 70.504C86.5951 70.744 86.3818 70.9653 86.1418 71.168L85.9018 70.936C85.8324 70.872 85.7978 70.7973 85.7978 70.712C85.7978 70.6427 85.8351 70.5707 85.9098 70.496C85.9631 70.4373 86.0298 70.3573 86.1098 70.256C86.1951 70.16 86.2804 70.048 86.3658 69.92C86.4511 69.792 86.5284 69.6507 86.5978 69.496C86.6724 69.3413 86.7258 69.176 86.7578 69H86.6538C86.5151 69 86.3898 68.976 86.2778 68.928C86.1658 68.88 86.0671 68.8133 85.9818 68.728C85.9018 68.6373 85.8378 68.5333 85.7898 68.416C85.7471 68.2933 85.7258 68.16 85.7258 68.016Z" fill="#4A5056"/>
<path d="M94.4691 57.1925C94.7071 56.9825 94.9661 56.783 95.2461 56.594C95.5331 56.405 95.8411 56.2405 96.1701 56.1005C96.4991 55.9605 96.8561 55.852 97.2411 55.775C97.6261 55.691 98.0426 55.649 98.4906 55.649C99.0996 55.649 99.6526 55.733 100.15 55.901C100.654 56.069 101.084 56.3105 101.441 56.6255C101.798 56.9335 102.075 57.308 102.271 57.749C102.467 58.19 102.565 58.6835 102.565 59.2295C102.565 59.7615 102.488 60.2235 102.334 60.6155C102.18 61.0005 101.984 61.3365 101.746 61.6235C101.515 61.9105 101.263 62.159 100.99 62.369C100.717 62.579 100.458 62.7785 100.213 62.9675C99.9676 63.1495 99.7541 63.3315 99.5721 63.5135C99.3971 63.6885 99.2921 63.888 99.2571 64.112L99.0156 65.645H97.2411L97.0626 63.9335C97.0556 63.8985 97.0521 63.8705 97.0521 63.8495C97.0521 63.8215 97.0521 63.79 97.0521 63.755C97.0521 63.447 97.1291 63.181 97.2831 62.957C97.4371 62.726 97.6296 62.5125 97.8606 62.3165C98.0916 62.1135 98.3401 61.9175 98.6061 61.7285C98.8721 61.5395 99.1206 61.3365 99.3516 61.1195C99.5826 60.8955 99.7751 60.6435 99.9291 60.3635C100.083 60.0835 100.16 59.7545 100.16 59.3765C100.16 59.1245 100.111 58.9005 100.013 58.7045C99.9221 58.5015 99.7926 58.33 99.6246 58.19C99.4566 58.043 99.2536 57.931 99.0156 57.854C98.7846 57.777 98.5326 57.7385 98.2596 57.7385C97.8606 57.7385 97.5211 57.784 97.2411 57.875C96.9681 57.959 96.7336 58.057 96.5376 58.169C96.3486 58.274 96.1876 58.372 96.0546 58.463C95.9216 58.547 95.8026 58.589 95.6976 58.589C95.4456 58.589 95.2636 58.484 95.1516 58.274L94.4691 57.1925ZM96.4536 69.572C96.4536 69.355 96.4921 69.1485 96.5691 68.9525C96.6531 68.7565 96.7651 68.5885 96.9051 68.4485C97.0521 68.3085 97.2236 68.1965 97.4196 68.1125C97.6156 68.0285 97.8256 67.9865 98.0496 67.9865C98.2666 67.9865 98.4731 68.0285 98.6691 68.1125C98.8651 68.1965 99.0331 68.3085 99.1731 68.4485C99.3131 68.5885 99.4251 68.7565 99.5091 68.9525C99.5931 69.1485 99.6351 69.355 99.6351 69.572C99.6351 69.796 99.5931 70.006 99.5091 70.202C99.4251 70.391 99.3131 70.5555 99.1731 70.6955C99.0331 70.8355 98.8651 70.944 98.6691 71.021C98.4731 71.105 98.2666 71.147 98.0496 71.147C97.8256 71.147 97.6156 71.105 97.4196 71.021C97.2236 70.944 97.0521 70.8355 96.9051 70.6955C96.7651 70.5555 96.6531 70.391 96.5691 70.202C96.4921 70.006 96.4536 69.796 96.4536 69.572Z" fill="#4A5056"/>
</g>
<defs>
<clipPath id="clip0_532_23568">
<rect width="125" height="125" fill="white"/>
</clipPath>
</defs>
</svg>
