<svg width="270" height="232" viewBox="0 0 270 232" fill="none" xmlns="http://www.w3.org/2000/svg">
<ellipse cx="104" cy="104.5" rx="104" ry="104.5" fill="#63A650" fill-opacity="0.05"/>
<path d="M205.027 226.71L201.295 226.71L199.52 212.328L205.028 212.329L205.027 226.71Z" fill="#9F616A"/>
<path d="M205.158 230.6L193.683 230.6V230.455C193.683 229.271 194.153 228.136 194.991 227.299C195.829 226.462 196.965 225.992 198.149 225.992L200.246 224.403L204.157 225.992H205.159L205.158 230.6Z" fill="#4A5056"/>
<path d="M253.41 206.266L250.999 209.112L238.863 201.178L242.42 196.977L253.41 206.266Z" fill="#9F616A"/>
<path d="M256.467 208.677L249.055 217.431L248.944 217.337C248.04 216.573 247.476 215.481 247.378 214.301C247.279 213.122 247.654 211.952 248.419 211.048L248.559 208.423L252.299 206.465L252.946 205.701L256.467 208.677Z" fill="#4A5056"/>
<path d="M223.246 120.929L203.24 123.248L195.355 136.745L194.224 141.264L194.736 144.371L193.47 146.536L194.224 150.679L191.209 183.441L199.501 220.346H207.227L204.777 186.077L211.185 156.704L216.838 185.324L242.984 208.074L249.074 199.351L228.899 182.312L227.015 176.286L229.554 171.192L231.538 137.498L223.246 120.929Z" fill="#4A5056"/>
<path d="M71.061 36.7658H60.8845C60.3847 36.7658 59.9054 36.5674 59.552 36.2143C59.1986 35.8612 59 35.3823 59 34.8829C59 34.3835 59.1986 33.9046 59.552 33.5515C59.9054 33.1984 60.3847 33 60.8845 33H71.061C71.5608 33 72.0401 33.1984 72.3935 33.5515C72.747 33.9046 72.9455 34.3835 72.9455 34.8829C72.9455 35.3823 72.747 35.8612 72.3935 36.2143C72.0401 36.5674 71.5608 36.7658 71.061 36.7658Z" fill="#63A650" fill-opacity="0.1"/>
<path d="M137.773 36.5775C138.71 36.5775 139.469 35.8188 139.469 34.8829C139.469 33.947 138.71 33.1883 137.773 33.1883C136.837 33.1883 136.077 33.947 136.077 34.8829C136.077 35.8188 136.837 36.5775 137.773 36.5775Z" fill="#63A650" fill-opacity="0.1"/>
<path d="M143.05 36.5775C143.987 36.5775 144.746 35.8188 144.746 34.8829C144.746 33.947 143.987 33.1883 143.05 33.1883C142.113 33.1883 141.354 33.947 141.354 34.8829C141.354 35.8188 142.113 36.5775 143.05 36.5775Z" fill="#63A650" fill-opacity="0.1"/>
<path d="M148.327 36.5775C149.263 36.5775 150.023 35.8188 150.023 34.8829C150.023 33.947 149.263 33.1883 148.327 33.1883C147.39 33.1883 146.631 33.947 146.631 34.8829C146.631 35.8188 147.39 36.5775 148.327 36.5775Z" fill="#63A650" fill-opacity="0.1"/>
<path d="M81.8028 86.4712H63.7113C62.4622 86.4698 61.2647 85.9734 60.3815 85.091C59.4982 84.2085 59.0014 83.012 59 81.764V63.688C59.0014 62.44 59.4982 61.2435 60.3815 60.361C61.2647 59.4785 62.4622 58.9821 63.7113 58.9807H81.8028C83.0519 58.9821 84.2494 59.4785 85.1326 60.361C86.0159 61.2435 86.5127 62.44 86.5141 63.688V81.764C86.5127 83.012 86.0159 84.2085 85.1326 85.091C84.2494 85.9734 83.0519 86.4698 81.8028 86.4712Z" fill="#63A650" fill-opacity="0.15"/>
<path d="M145.501 86.4712H127.409C126.16 86.4698 124.962 85.9734 124.079 85.091C123.196 84.2085 122.699 83.012 122.698 81.764V63.688C122.699 62.44 123.196 61.2435 124.079 60.361C124.962 59.4785 126.16 58.9821 127.409 58.9807H145.501C146.75 58.9821 147.947 59.4785 148.83 60.361C149.714 61.2435 150.21 62.44 150.212 63.688V81.764C150.21 83.012 149.714 84.2085 148.83 85.091C147.947 85.9734 146.75 86.4698 145.501 86.4712Z" fill="#63A650" fill-opacity="0.15"/>
<path d="M113.463 86.4712H95.3714C94.1223 86.4698 92.9248 85.9734 92.0415 85.091C91.1583 84.2085 90.6615 83.012 90.6601 81.764V63.688C90.6615 62.44 91.1583 61.2435 92.0415 60.361C92.9248 59.4785 94.1223 58.9821 95.3714 58.9807H113.463C114.712 58.9821 115.909 59.4785 116.793 60.361C117.676 61.2435 118.173 62.44 118.174 63.688V81.764C118.173 83.012 117.676 84.2085 116.793 85.091C115.909 85.9734 114.712 86.4698 113.463 86.4712Z" fill="#63A650" fill-opacity="0.15"/>
<path d="M63.7113 98.8984C62.5622 98.8997 61.4604 99.3564 60.6478 100.168C59.8353 100.98 59.3782 102.081 59.3769 103.229V121.305C59.3782 122.453 59.8353 123.554 60.6479 124.366C61.4604 125.178 62.5622 125.634 63.7113 125.636H81.8028C82.9519 125.634 84.0537 125.178 84.8662 124.366C85.6788 123.554 86.1359 122.453 86.1372 121.305V103.229C86.1359 102.081 85.6788 100.98 84.8663 100.168C84.0537 99.3564 82.9519 98.8997 81.8028 98.8984H63.7113Z" fill="#63A650" fill-opacity="0.15"/>
<path d="M145.501 126.012H127.409C126.16 126.011 124.962 125.515 124.079 124.632C123.196 123.75 122.699 122.553 122.698 121.305V103.229C122.699 101.981 123.196 100.785 124.079 99.9021C124.962 99.0196 126.16 98.5233 127.409 98.5219H145.501C146.75 98.5233 147.947 99.0196 148.83 99.9021C149.714 100.785 150.21 101.981 150.212 103.229V121.305C150.21 122.553 149.714 123.75 148.83 124.632C147.947 125.515 146.75 126.011 145.501 126.012Z" fill="#63A650" fill-opacity="0.15"/>
<path d="M113.463 126.012H95.3714C94.1223 126.011 92.9248 125.515 92.0415 124.632C91.1583 123.75 90.6615 122.553 90.6601 121.305V103.229C90.6615 101.981 91.1583 100.785 92.0415 99.9021C92.9248 99.0196 94.1223 98.5233 95.3714 98.5219H113.463C114.712 98.5233 115.909 99.0196 116.793 99.9021C117.676 100.785 118.173 101.981 118.174 103.229V121.305C118.173 122.553 117.676 123.75 116.793 124.632C115.909 125.515 114.712 126.011 113.463 126.012Z" fill="#63A650" fill-opacity="0.15"/>
<path d="M81.8028 165.553H63.7113C62.4622 165.552 61.2647 165.056 60.3815 164.173C59.4982 163.291 59.0014 162.094 59 160.846V142.77C59.0014 141.522 59.4982 140.326 60.3815 139.443C61.2647 138.561 62.4622 138.064 63.7113 138.063H81.8028C83.0519 138.064 84.2494 138.561 85.1326 139.443C86.0159 140.326 86.5127 141.522 86.5141 142.77V160.846C86.5127 162.094 86.0159 163.291 85.1326 164.173C84.2494 165.056 83.0519 165.552 81.8028 165.553Z" fill="#63A650" fill-opacity="0.15"/>
<path d="M145.501 165.553H127.409C126.16 165.552 124.962 165.056 124.079 164.173C123.196 163.291 122.699 162.094 122.698 160.846V142.77C122.699 141.522 123.196 140.326 124.079 139.443C124.962 138.561 126.16 138.064 127.409 138.063H145.501C146.75 138.064 147.947 138.561 148.83 139.443C149.714 140.326 150.21 141.522 150.212 142.77V160.846C150.21 162.094 149.714 163.291 148.83 164.173C147.947 165.056 146.75 165.552 145.501 165.553Z" fill="#63A650" fill-opacity="0.15"/>
<path d="M113.463 165.553H95.3714C94.1223 165.552 92.9248 165.056 92.0415 164.173C91.1583 163.291 90.6615 162.094 90.6601 160.846V142.77C90.6615 141.522 91.1583 140.326 92.0415 139.443C92.9248 138.561 94.1223 138.064 95.3714 138.063H113.463C114.712 138.064 115.909 138.561 116.793 139.443C117.676 140.326 118.173 141.522 118.174 142.77V160.846C118.173 162.094 117.676 163.291 116.793 164.173C115.909 165.056 114.712 165.552 113.463 165.553Z" fill="#63A650" fill-opacity="0.15"/>
<path d="M151.83 155.574H58.8347C57.0227 155.572 55.2854 154.852 54.0041 153.572C52.7228 152.292 52.002 150.556 52 148.745V111.941C52.002 110.13 52.7228 108.395 54.0041 107.114C55.2854 105.834 57.0227 105.114 58.8347 105.112H151.83C153.642 105.114 155.379 105.834 156.66 107.114C157.941 108.395 158.662 110.13 158.664 111.941V148.745C158.662 150.556 157.941 152.292 156.66 153.572C155.379 154.852 153.642 155.572 151.83 155.574Z" fill="white"/>
<path d="M151.83 155.574H58.8347C57.0227 155.572 55.2854 154.852 54.0041 153.572C52.7228 152.292 52.002 150.556 52 148.745V111.941C52.002 110.13 52.7228 108.395 54.0041 107.114C55.2854 105.834 57.0227 105.114 58.8347 105.112H151.83C153.642 105.114 155.379 105.834 156.66 107.114C157.941 108.395 158.662 110.13 158.664 111.941V148.745C158.662 150.556 157.941 152.292 156.66 153.572C155.379 154.852 153.642 155.572 151.83 155.574ZM76.8075 105.865C70.4281 105.865 64.3099 108.397 59.799 112.904C55.288 117.411 52.7538 123.524 52.7538 129.898V148.745C52.7538 149.543 52.9111 150.333 53.2167 151.07C53.5223 151.807 53.9702 152.477 54.5349 153.041C55.0995 153.606 55.7699 154.053 56.5077 154.358C57.2454 154.664 58.0362 154.821 58.8347 154.821H151.83C152.628 154.821 153.419 154.664 154.157 154.358C154.894 154.053 155.565 153.606 156.129 153.041C156.694 152.477 157.142 151.807 157.448 151.07C157.753 150.333 157.91 149.543 157.91 148.745V111.941C157.91 110.33 157.27 108.784 156.129 107.645C154.989 106.505 153.442 105.865 151.83 105.865H76.8075Z" fill="#63A650"/>
<path d="M99.0109 122.927L65.1309 122.531C65.0823 122.531 65.0341 122.521 64.9892 122.503C64.9442 122.484 64.9035 122.456 64.8692 122.422C64.8349 122.387 64.8077 122.346 64.7892 122.301C64.7708 122.256 64.7613 122.208 64.7615 122.16C64.7617 122.111 64.7715 122.063 64.7902 122.018C64.809 121.973 64.8365 121.932 64.871 121.898C64.9056 121.864 64.9466 121.837 64.9916 121.818C65.0366 121.8 65.0849 121.79 65.1336 121.79L99.0135 122.186C99.1118 122.186 99.206 122.225 99.2753 122.295C99.3446 122.365 99.3833 122.459 99.3829 122.557C99.3826 122.656 99.3432 122.75 99.2734 122.819C99.2036 122.888 99.1092 122.927 99.0109 122.927Z" fill="#AEB5BC"/>
<path d="M116.349 128.952L65.1309 128.557C65.0823 128.556 65.0341 128.547 64.9892 128.528C64.9442 128.509 64.9035 128.482 64.8692 128.447C64.8349 128.413 64.8077 128.372 64.7892 128.327C64.7708 128.282 64.7613 128.234 64.7615 128.185C64.7617 128.136 64.7715 128.088 64.7902 128.043C64.809 127.998 64.8365 127.958 64.871 127.923C64.9056 127.889 64.9466 127.862 64.9916 127.843C65.0366 127.825 65.0849 127.816 65.1336 127.816L116.351 128.211C116.449 128.211 116.544 128.251 116.613 128.32C116.682 128.39 116.721 128.484 116.721 128.583C116.72 128.681 116.681 128.775 116.611 128.844C116.541 128.913 116.447 128.952 116.349 128.952Z" fill="#AEB5BC"/>
<path d="M137.045 133.638C141.417 133.638 144.96 130.098 144.96 125.73C144.96 121.362 141.417 117.822 137.045 117.822C132.674 117.822 129.13 121.362 129.13 125.73C129.13 130.098 132.674 133.638 137.045 133.638Z" fill="#63A650"/>
<path d="M139.837 127.649L137.045 121.037L134.254 127.649L136.668 126.624V130.626H137.422V126.624L139.837 127.649Z" fill="white"/>
<path d="M144.96 140.982H65.8104C65.5604 140.982 65.3208 141.081 65.1441 141.257C64.9674 141.434 64.8681 141.673 64.8681 141.923C64.8681 142.173 64.9674 142.412 65.1441 142.589C65.3208 142.765 65.5604 142.864 65.8104 142.864H144.96C145.21 142.864 145.45 142.765 145.627 142.589C145.803 142.412 145.903 142.173 145.903 141.923C145.903 141.673 145.803 141.434 145.627 141.257C145.45 141.081 145.21 140.982 144.96 140.982Z" fill="#EAECEE"/>
<path d="M111.039 140.982V142.864H65.8104C65.5604 142.864 65.3208 142.765 65.1441 142.589C64.9674 142.412 64.8681 142.173 64.8681 141.923C64.8681 141.673 64.9674 141.434 65.1441 141.257C65.3208 141.081 65.5604 140.982 65.8104 140.982H111.039Z" fill="#63A650"/>
<path d="M214.765 135.05C214.765 135.05 227.96 135.727 228.146 131.096C228.331 126.465 225.362 121.559 224 121.305C222.637 121.052 223.132 116.974 223.848 114.15C224.565 111.326 224.007 110.015 223.155 109.917C222.304 109.819 202.516 82.8937 202.516 82.8937L198.182 83.082L193.847 79.881L187.063 82.5171L185.555 88.5424L181.409 92.3083L183.784 108.864C183.784 108.864 186.413 115.546 190.027 122.358C191.151 124.478 192.371 126.611 193.637 128.558C196.618 133.146 199.853 136.709 202.694 136.669C210.619 136.557 214.765 135.05 214.765 135.05Z" fill="#8FD6FF"/>
<path d="M165.832 117.459L163.456 118.555L162.906 118.807L162.025 119.217L143.688 127.676C143.279 128.121 142.733 128.417 142.137 128.519C141.541 128.621 140.928 128.523 140.394 128.239C139.782 127.908 139.328 127.348 139.13 126.683C138.931 126.017 139.006 125.3 139.336 124.689C139.348 124.667 139.362 124.649 139.374 124.627C139.725 124.005 140.306 123.543 140.993 123.342C141.679 123.14 142.417 123.213 143.051 123.547C143.177 123.618 143.298 123.7 143.412 123.79L143.888 123.488L145.382 122.541L146.51 121.827L148.753 120.4L149.623 119.849L152.445 118.06L155.166 116.334L158.463 114.243L160.998 112.634L161.787 113.421L165.832 117.459Z" fill="#9F616A"/>
<path d="M170.578 117.073C170.255 117.212 169.918 117.315 169.572 117.38C168.476 117.395 169.446 116.43 167.413 117.987C165.763 119.249 165.244 117.872 165.131 118.545C164.945 119.656 164.061 118.801 163.456 118.555C163.187 118.443 162.977 118.455 162.906 118.807C162.876 118.971 162.869 119.137 162.885 119.303C162.92 119.942 162.56 119.776 162.025 119.217C161.142 118.288 159.785 116.281 158.99 115.053C158.76 114.707 158.579 114.42 158.463 114.243C158.38 114.11 158.334 114.034 158.334 114.034C158.424 113.636 158.654 113.285 158.982 113.043C159.659 112.495 160.448 112.103 161.293 111.896C161.88 111.751 162.479 111.664 163.082 111.637C163.309 111.628 163.529 111.556 163.717 111.427L163.721 111.425C163.82 111.331 163.898 111.216 163.948 111.088C163.998 110.96 164.02 110.823 164.011 110.686C164.046 110 164.897 109.864 165.773 109.861C166.598 109.863 167.451 109.978 167.662 109.852C167.966 109.672 174.71 99.7479 179.013 93.3887C179.958 91.9913 181.412 91.0176 183.065 90.6748C184.718 90.332 186.439 90.6471 187.863 91.5531L190.876 93.47C192.005 93.9175 192.915 94.7884 193.41 95.8967C193.779 96.8475 193.847 97.8883 193.607 98.8792C193.269 100.273 192.679 101.593 191.867 102.776C187.704 109.23 174.441 115.626 170.578 117.073Z" fill="#8FD6FF"/>
<path d="M225.413 104.907L226.939 107.031L227.291 107.523L227.86 108.309L239.636 124.704C240.151 125.022 240.545 125.501 240.758 126.067C240.97 126.632 240.989 127.253 240.811 127.83C240.602 128.492 240.137 129.044 239.52 129.364C238.903 129.685 238.185 129.747 237.522 129.538C237.498 129.531 237.478 129.52 237.454 129.513C236.776 129.286 236.213 128.803 235.885 128.167C235.557 127.532 235.49 126.793 235.698 126.109C235.744 125.971 235.801 125.837 235.869 125.708L235.481 125.299L234.269 124.012L233.354 123.04L231.529 121.108L230.822 120.358L228.531 117.928L226.322 115.584L223.643 112.743L221.583 110.561L222.208 109.638L225.413 104.907Z" fill="#9F616A"/>
<path d="M224.138 100.322C224.336 100.613 224.5 100.924 224.629 101.251C224.851 102.324 223.719 101.555 225.634 103.255C227.185 104.636 225.93 105.405 226.612 105.389C227.74 105.362 227.067 106.39 226.939 107.031C226.88 107.315 226.931 107.519 227.291 107.523C227.457 107.521 227.622 107.497 227.782 107.45C228.403 107.294 228.309 107.679 227.86 108.309C227.114 109.351 225.397 111.062 224.34 112.074C224.044 112.365 223.796 112.596 223.643 112.743C223.529 112.851 223.462 112.91 223.462 112.91C223.055 112.896 222.666 112.737 222.366 112.461C221.7 111.901 221.166 111.2 220.803 110.41C220.549 109.862 220.35 109.291 220.21 108.704C220.159 108.482 220.046 108.28 219.884 108.12L219.881 108.117C219.77 108.037 219.642 107.983 219.507 107.958C219.372 107.933 219.233 107.938 219.1 107.972C218.419 108.067 218.125 107.257 217.956 106.399C217.803 105.588 217.755 104.731 217.591 104.547C217.245 104.158 207.249 98.2213 207.249 98.2213L197.107 84.8632C197.333 83.6707 198.018 82.614 199.013 81.9188C199.878 81.3774 200.888 81.1136 201.908 81.1627C203.341 81.2312 204.75 81.5604 206.066 82.1342C213.196 85.0002 221.986 96.8053 224.138 100.322Z" fill="#8FD6FF"/>
<path d="M186.485 79.5188C191.285 79.5188 195.175 75.6316 195.175 70.8364C195.175 66.0413 191.285 62.1541 186.485 62.1541C181.686 62.1541 177.796 66.0413 177.796 70.8364C177.796 75.6316 181.686 79.5188 186.485 79.5188Z" fill="#9F616A"/>
<path d="M196.384 72.6657C196.384 72.6657 194.59 75.2077 193.47 76.1152C193.482 74.7934 193.263 72.5904 193.274 71.2724C193.316 70.5803 193.246 69.8861 193.067 69.2162C192.973 68.8824 192.801 68.5758 192.564 68.3222C192.327 68.0687 192.033 67.8755 191.706 67.7588C191.384 67.6668 191.041 67.6783 190.726 67.7917C190.411 67.9052 190.14 68.1149 189.95 68.3911C189.761 68.6673 189.663 68.996 189.671 69.3306C189.68 69.6652 189.793 69.9888 189.995 70.2556C189.43 70.3723 188.94 69.8263 188.717 69.2915C188.495 68.7568 188.378 68.1392 187.941 67.7551C187.717 67.5818 187.452 67.4687 187.172 67.4265C186.891 67.3843 186.605 67.4144 186.339 67.5141C185.81 67.7167 185.331 68.033 184.937 68.4405C183.75 69.5438 182.766 70.8845 181.406 71.7732C181.133 71.9517 180.844 72.1042 180.542 72.2289C180.302 71.324 179.758 70.5291 179.001 69.9769C179.154 70.8396 179.145 71.7234 178.974 72.5829C178.216 72.6435 177.462 72.4133 176.868 71.9389C176.229 71.3601 175.826 70.5663 175.737 69.7095C175.686 69.3213 175.675 68.9289 175.703 68.5384C175.908 68.4245 176.101 68.2908 176.28 68.1392C176.677 67.8151 177.006 67.4158 177.248 66.9642C176.792 67.1122 176.32 67.2082 175.842 67.2505C175.846 67.2203 175.85 67.194 175.854 67.1638C175.905 66.5157 176.121 65.8913 176.479 65.3487C176.879 64.8403 177.636 64.5504 178.198 64.878C178.517 63.828 179.043 62.8521 179.743 62.0072C180.444 61.1623 181.306 60.4654 182.28 59.9571C183.253 59.4487 184.318 59.1392 185.412 59.0466C186.507 58.9539 187.608 59.0801 188.653 59.4175C188.432 59.8789 188.302 60.3791 188.273 60.89C188.696 60.4982 189.169 60.1628 189.679 59.892C189.928 60.027 190.143 60.2186 190.305 60.4514C190.468 60.6842 190.573 60.9518 190.613 61.2327C191.333 61.3645 192.713 61.5339 192.223 62.0348C194.118 62.9692 195.596 64.5776 196.366 66.5444C197.135 68.5112 197.142 70.6944 196.384 72.6657Z" fill="#4A5056"/>
<path d="M248.616 224.616C248.791 224.624 248.965 224.578 249.113 224.484C249.261 224.39 249.377 224.253 249.445 224.092C249.512 223.93 249.529 223.751 249.491 223.58C249.454 223.409 249.365 223.253 249.236 223.134L249.177 222.902C249.185 222.883 249.193 222.864 249.201 222.846C249.377 222.429 249.673 222.074 250.051 221.825C250.429 221.576 250.872 221.444 251.324 221.445C251.777 221.447 252.219 221.582 252.595 221.834C252.971 222.086 253.264 222.444 253.438 222.861C254.131 224.529 255.013 226.199 255.23 227.963C255.326 228.742 255.286 229.532 255.111 230.298C256.739 226.75 257.584 222.895 257.589 218.992C257.589 218.013 257.535 217.035 257.426 216.061C257.336 215.264 257.211 214.471 257.051 213.685C256.179 209.418 254.306 205.418 251.586 202.015C250.27 201.297 249.205 200.194 248.536 198.853C248.293 198.371 248.122 197.856 248.027 197.325C248.175 197.345 248.587 195.085 248.475 194.947C248.682 194.633 249.052 194.477 249.278 194.171C250.402 192.648 251.951 192.914 252.759 194.983C254.486 195.854 254.503 197.298 253.443 198.687C252.769 199.571 252.677 200.767 252.085 201.713C252.146 201.791 252.209 201.866 252.27 201.944C253.383 203.374 254.352 204.908 255.165 206.527C254.967 204.714 255.203 202.88 255.853 201.176C256.512 199.588 257.747 198.25 258.835 196.877C259.123 196.508 259.513 196.233 259.957 196.086C260.402 195.939 260.88 195.927 261.331 196.051C261.782 196.175 262.186 196.43 262.492 196.784C262.798 197.138 262.992 197.574 263.05 198.038C263.052 198.058 263.055 198.079 263.057 198.099C262.895 198.19 262.737 198.287 262.582 198.389C262.388 198.519 262.237 198.704 262.15 198.921C262.063 199.137 262.044 199.375 262.094 199.603C262.145 199.831 262.263 200.039 262.434 200.199C262.604 200.358 262.819 200.463 263.05 200.498L263.074 200.502C263.016 201.084 262.914 201.66 262.769 202.226C264.165 207.618 261.152 209.581 256.851 209.669C256.757 209.718 256.664 209.767 256.569 209.813C257.386 212.125 257.898 214.534 258.093 216.978C258.203 218.42 258.197 219.869 258.074 221.31L258.081 221.259C258.392 219.657 259.248 218.211 260.503 217.166C262.367 215.636 265.001 215.072 267.012 213.843C267.225 213.705 267.474 213.632 267.728 213.632C267.982 213.631 268.231 213.703 268.445 213.839C268.659 213.975 268.83 214.17 268.938 214.4C269.045 214.629 269.084 214.885 269.051 215.137L269.043 215.191C268.743 215.313 268.451 215.453 268.169 215.611C268.007 215.702 267.849 215.799 267.695 215.901C267.5 216.031 267.35 216.216 267.262 216.433C267.175 216.65 267.156 216.888 267.206 217.116C267.257 217.344 267.375 217.551 267.546 217.711C267.716 217.871 267.931 217.975 268.162 218.011L268.186 218.014C268.203 218.017 268.218 218.019 268.235 218.022C267.722 219.244 267.004 220.368 266.109 221.347C265.237 226.053 261.49 226.499 257.482 225.129H257.48C257.04 227.038 256.403 228.897 255.578 230.675H248.786C248.762 230.599 248.74 230.521 248.718 230.446C249.347 230.485 249.978 230.448 250.598 230.334C250.094 229.716 249.59 229.094 249.086 228.476C249.075 228.464 249.064 228.452 249.054 228.439C248.799 228.123 248.54 227.809 248.285 227.493L248.285 227.493C248.271 226.524 248.383 225.556 248.616 224.616Z" fill="#EAECEE"/>
<path d="M173.637 230.695C173.636 230.754 173.648 230.812 173.67 230.866C173.693 230.921 173.726 230.97 173.768 231.012C173.809 231.054 173.859 231.087 173.913 231.109C173.968 231.132 174.026 231.143 174.085 231.143H269.551C269.67 231.143 269.785 231.096 269.869 231.012C269.953 230.928 270 230.814 270 230.695C270 230.576 269.953 230.462 269.869 230.378C269.785 230.294 269.67 230.247 269.551 230.247H174.085C174.026 230.246 173.968 230.258 173.913 230.28C173.859 230.303 173.809 230.336 173.768 230.377C173.726 230.419 173.693 230.469 173.67 230.523C173.648 230.577 173.636 230.636 173.637 230.695Z" fill="#EAECEE"/>
</svg>
