<svg width="125" height="125" viewBox="0 0 125 125" fill="none" xmlns="http://www.w3.org/2000/svg">
<g clip-path="url(#clip0_532_23750)">
<circle cx="78.5772" cy="88.7842" r="11.2154" fill="white" stroke="#4A5056"/>
<path d="M72.6294 88.6064C72.4223 88.6064 72.2544 88.7743 72.2544 88.9814C72.2544 89.1886 72.4223 89.3564 72.6294 89.3564L72.6294 88.6064ZM85.1576 89.2466C85.3041 89.1002 85.3041 88.8627 85.1576 88.7163L82.7711 86.3298C82.6247 86.1833 82.3873 86.1833 82.2408 86.3298C82.0944 86.4762 82.0944 86.7137 82.2408 86.8601L84.3621 88.9814L82.2408 91.1028C82.0944 91.2492 82.0944 91.4867 82.2408 91.6331C82.3873 91.7795 82.6247 91.7795 82.7711 91.6331L85.1576 89.2466ZM72.6294 89.3564L84.8925 89.3564L84.8925 88.6064L72.6294 88.6064L72.6294 89.3564Z" fill="#4A5056"/>
<circle cx="45.2153" cy="88.7836" r="11.2154" transform="rotate(-180 45.2153 88.7836)" fill="white" stroke="#4A5056"/>
<path d="M51.5586 89.3564C51.7657 89.3564 51.9336 89.1886 51.9336 88.9814C51.9336 88.7743 51.7657 88.6064 51.5586 88.6064L51.5586 89.3564ZM39.0304 88.7163C38.8839 88.8627 38.8839 89.1002 39.0304 89.2466L41.4169 91.6331C41.5633 91.7795 41.8007 91.7795 41.9472 91.6331C42.0936 91.4866 42.0936 91.2492 41.9472 91.1028L39.8259 88.9814L41.9472 86.8601C42.0936 86.7137 42.0936 86.4762 41.9472 86.3298C41.8007 86.1833 41.5633 86.1833 41.4169 86.3298L39.0304 88.7163ZM51.5586 88.6064L39.2955 88.6064L39.2955 89.3564L51.5586 89.3564L51.5586 88.6064Z" fill="#4A5056"/>
<path d="M70.7857 26.1489C86.6098 27.3964 90.4981 38.7888 90.1702 45.2509C89.1812 64.7429 65.4451 63.5734 64.4561 63.3784C63.4671 63.1835 50.0166 62.7937 39.5332 54.6071C29.0472 46.4186 35.9728 38.9486 39.9288 35.3101C43.753 31.8015 54.9617 24.9014 70.7857 26.1489Z" stroke="#4A5056" stroke-linecap="round" stroke-dasharray="4 4"/>
</g>
<defs>
<clipPath id="clip0_532_23750">
<rect width="125" height="125" fill="white"/>
</clipPath>
</defs>
</svg>
