<svg width="125" height="125" viewBox="0 0 125 125" fill="none" xmlns="http://www.w3.org/2000/svg">
<g clip-path="url(#clip0_532_23464)">
<path d="M22 51.2002H65.6" stroke="#4A5056" stroke-linecap="round"/>
<path d="M22 62.3979H77.6" stroke="#4A5056" stroke-linecap="round"/>
<path d="M22 73.6021H59.6" stroke="#4A5056" stroke-linecap="round"/>
<path d="M84.9957 51.7C85.449 51.3 85.9424 50.92 86.4757 50.56C87.0224 50.2 87.609 49.8867 88.2357 49.62C88.8624 49.3533 89.5424 49.1467 90.2757 49C91.009 48.84 91.8024 48.76 92.6557 48.76C93.8157 48.76 94.8691 48.92 95.8157 49.24C96.7757 49.56 97.5957 50.02 98.2757 50.62C98.9557 51.2067 99.4824 51.92 99.8557 52.76C100.229 53.6 100.416 54.54 100.416 55.58C100.416 56.5933 100.269 57.4733 99.9757 58.22C99.6824 58.9533 99.3091 59.5933 98.8557 60.14C98.4157 60.6867 97.9357 61.16 97.4157 61.56C96.8957 61.96 96.4024 62.34 95.9357 62.7C95.4691 63.0467 95.0624 63.3933 94.7157 63.74C94.3824 64.0733 94.1824 64.4533 94.1157 64.88L93.6557 67.8H90.2757L89.9357 64.54C89.9224 64.4733 89.9157 64.42 89.9157 64.38C89.9157 64.3267 89.9157 64.2667 89.9157 64.2C89.9157 63.6133 90.0624 63.1067 90.3557 62.68C90.649 62.24 91.0157 61.8333 91.4557 61.46C91.8957 61.0733 92.369 60.7 92.8757 60.34C93.3824 59.98 93.8557 59.5933 94.2957 59.18C94.7357 58.7533 95.1024 58.2733 95.3957 57.74C95.6891 57.2067 95.8357 56.58 95.8357 55.86C95.8357 55.38 95.7424 54.9533 95.5557 54.58C95.3824 54.1933 95.1357 53.8667 94.8157 53.6C94.4957 53.32 94.109 53.1067 93.6557 52.96C93.2157 52.8133 92.7357 52.74 92.2157 52.74C91.4557 52.74 90.8091 52.8267 90.2757 53C89.7557 53.16 89.3091 53.3467 88.9357 53.56C88.5757 53.76 88.269 53.9467 88.0157 54.12C87.7624 54.28 87.5357 54.36 87.3357 54.36C86.8557 54.36 86.509 54.16 86.2957 53.76L84.9957 51.7ZM88.7757 75.28C88.7757 74.8667 88.849 74.4733 88.9957 74.1C89.1557 73.7267 89.369 73.4067 89.6357 73.14C89.9157 72.8733 90.2424 72.66 90.6157 72.5C90.989 72.34 91.3891 72.26 91.8157 72.26C92.229 72.26 92.6224 72.34 92.9957 72.5C93.3691 72.66 93.6891 72.8733 93.9557 73.14C94.2224 73.4067 94.4357 73.7267 94.5957 74.1C94.7557 74.4733 94.8357 74.8667 94.8357 75.28C94.8357 75.7067 94.7557 76.1067 94.5957 76.48C94.4357 76.84 94.2224 77.1533 93.9557 77.42C93.6891 77.6867 93.3691 77.8933 92.9957 78.04C92.6224 78.2 92.229 78.28 91.8157 78.28C91.3891 78.28 90.989 78.2 90.6157 78.04C90.2424 77.8933 89.9157 77.6867 89.6357 77.42C89.369 77.1533 89.1557 76.84 88.9957 76.48C88.849 76.1067 88.7757 75.7067 88.7757 75.28Z" fill="#4A5056"/>
</g>
<defs>
<clipPath id="clip0_532_23464">
<rect width="125" height="125" fill="white"/>
</clipPath>
</defs>
</svg>
