<svg width="32" height="32" viewBox="0 0 32 32" fill="none" xmlns="http://www.w3.org/2000/svg">
<path fill-rule="evenodd" clip-rule="evenodd" d="M22.964 21.2042C22.0262 18.4058 19.2599 16.3379 15.9252 16.3379C12.5905 16.3379 9.82418 18.4058 8.88645 21.2042H7.83789C8.80606 17.8236 12.0601 15.3379 15.9252 15.3379C19.7904 15.3379 23.0444 17.8236 24.0125 21.2042H22.964Z" fill="#2A2A2A"/>
<path fill-rule="evenodd" clip-rule="evenodd" d="M28.2658 16.3717L24.5998 18.2974L24.1348 17.4121L27.8008 15.4865L28.2658 16.3717Z" fill="#2A2A2A"/>
<path fill-rule="evenodd" clip-rule="evenodd" d="M21.7302 9.47262L19.7695 13.12L18.8887 12.6465L20.8494 8.99912L21.7302 9.47262Z" fill="#2A2A2A"/>
<path fill-rule="evenodd" clip-rule="evenodd" d="M3.98051 14.1637L7.40861 16.4866L6.84766 17.3145L3.41956 14.9915L3.98051 14.1637Z" fill="#2A2A2A"/>
<path fill-rule="evenodd" clip-rule="evenodd" d="M10.1067 9.4714L12.0305 13.1384L12.916 12.6738L10.9922 9.00683L10.1067 9.4714Z" fill="#2A2A2A"/>
<path fill-rule="evenodd" clip-rule="evenodd" d="M-0.000484467 21.2051L31.8457 21.2051V22.2051L-0.000484467 22.2051V21.2051Z" fill="#2A2A2A"/>
</svg>
