<svg width="125" height="125" viewBox="0 0 125 125" fill="none" xmlns="http://www.w3.org/2000/svg">
<g clip-path="url(#clip0_532_24186)">
<path d="M29 26.375H62.5092V62.5092H26.375V29C26.375 27.5503 27.5503 26.375 29 26.375Z" fill="white" stroke="#4A5056" stroke-width="0.75"/>
<path d="M26.375 62.4907H62.5092V98.6249H29C27.5503 98.6249 26.375 97.4497 26.375 95.9999V62.4907Z" fill="white" stroke="#4A5056" stroke-width="0.75"/>
<path d="M62.4907 26.375H95.9999C97.4497 26.375 98.6249 27.5503 98.6249 29V62.5092H62.4907V26.375Z" fill="white" stroke="#4A5056" stroke-width="0.75"/>
<path d="M62.4907 62.4907H98.6249V95.9999C98.6249 97.4497 97.4497 98.6249 95.9999 98.6249H62.4907V62.4907Z" fill="white" stroke="#4A5056" stroke-width="0.75"/>
<path d="M74.7995 72.3907C75.1395 72.0907 75.5095 71.8057 75.9095 71.5357C76.3195 71.2657 76.7595 71.0307 77.2295 70.8307C77.6995 70.6307 78.2095 70.4757 78.7595 70.3657C79.3095 70.2457 79.9045 70.1857 80.5445 70.1857C81.4145 70.1857 82.2045 70.3057 82.9145 70.5457C83.6345 70.7857 84.2495 71.1307 84.7595 71.5807C85.2695 72.0207 85.6645 72.5557 85.9445 73.1857C86.2245 73.8157 86.3645 74.5207 86.3645 75.3007C86.3645 76.0607 86.2545 76.7207 86.0345 77.2807C85.8145 77.8307 85.5345 78.3107 85.1945 78.7207C84.8645 79.1307 84.5045 79.4857 84.1145 79.7857C83.7245 80.0857 83.3545 80.3707 83.0045 80.6407C82.6545 80.9007 82.3495 81.1607 82.0895 81.4207C81.8395 81.6707 81.6895 81.9557 81.6395 82.2757L81.2945 84.4657H78.7595L78.5045 82.0207C78.4945 81.9707 78.4895 81.9307 78.4895 81.9007C78.4895 81.8607 78.4895 81.8157 78.4895 81.7657C78.4895 81.3257 78.5995 80.9457 78.8195 80.6257C79.0395 80.2957 79.3145 79.9907 79.6445 79.7107C79.9745 79.4207 80.3295 79.1407 80.7095 78.8707C81.0895 78.6007 81.4445 78.3107 81.7745 78.0007C82.1045 77.6807 82.3795 77.3207 82.5995 76.9207C82.8195 76.5207 82.9295 76.0507 82.9295 75.5107C82.9295 75.1507 82.8595 74.8307 82.7195 74.5507C82.5895 74.2607 82.4045 74.0157 82.1645 73.8157C81.9245 73.6057 81.6345 73.4457 81.2945 73.3357C80.9645 73.2257 80.6045 73.1707 80.2145 73.1707C79.6445 73.1707 79.1595 73.2357 78.7595 73.3657C78.3695 73.4857 78.0345 73.6257 77.7545 73.7857C77.4845 73.9357 77.2545 74.0757 77.0645 74.2057C76.8745 74.3257 76.7045 74.3857 76.5545 74.3857C76.1945 74.3857 75.9345 74.2357 75.7745 73.9357L74.7995 72.3907ZM77.6345 90.0757C77.6345 89.7657 77.6895 89.4707 77.7995 89.1907C77.9195 88.9107 78.0795 88.6707 78.2795 88.4707C78.4895 88.2707 78.7345 88.1107 79.0145 87.9907C79.2945 87.8707 79.5945 87.8107 79.9145 87.8107C80.2245 87.8107 80.5195 87.8707 80.7995 87.9907C81.0795 88.1107 81.3195 88.2707 81.5195 88.4707C81.7195 88.6707 81.8795 88.9107 81.9995 89.1907C82.1195 89.4707 82.1795 89.7657 82.1795 90.0757C82.1795 90.3957 82.1195 90.6957 81.9995 90.9757C81.8795 91.2457 81.7195 91.4807 81.5195 91.6807C81.3195 91.8807 81.0795 92.0357 80.7995 92.1457C80.5195 92.2657 80.2245 92.3257 79.9145 92.3257C79.5945 92.3257 79.2945 92.2657 79.0145 92.1457C78.7345 92.0357 78.4895 91.8807 78.2795 91.6807C78.0795 91.4807 77.9195 91.2457 77.7995 90.9757C77.6895 90.6957 77.6345 90.3957 77.6345 90.0757Z" fill="#4A5056"/>
<path d="M34.6446 50.5899C32.841 50.5899 31.3789 52.0519 31.3789 53.8555C31.3789 55.659 32.841 57.1211 34.6446 57.1211C36.4481 57.1211 37.9102 55.659 37.9102 53.8555C37.9102 52.0519 36.4481 50.5899 34.6446 50.5899Z" fill="#4A5056"/>
<path d="M54.6236 50.5899C52.82 50.5899 51.3579 52.0519 51.3579 53.8555C51.3579 55.659 52.82 57.1211 54.6236 57.1211C56.4271 57.1211 57.8892 55.659 57.8892 53.8555C57.8892 52.0519 56.4271 50.5899 54.6236 50.5899Z" fill="#4A5056"/>
<path d="M54.6236 32.148C52.82 32.148 51.3579 33.61 51.3579 35.4136C51.3579 37.2171 52.82 38.6792 54.6236 38.6792C56.4271 38.6792 57.8892 37.2171 57.8892 35.4136C57.8892 33.61 56.4271 32.148 54.6236 32.148Z" fill="#4A5056"/>
<path d="M34.6446 32.148C32.841 32.148 31.3789 33.61 31.3789 35.4136C31.3789 37.2171 32.841 38.6792 34.6446 38.6792C36.4481 38.6792 37.9102 37.2171 37.9102 35.4136C37.9102 33.61 36.4481 32.148 34.6446 32.148Z" fill="#4A5056"/>
<path d="M34.6446 86.7056C32.841 86.7056 31.3789 88.1677 31.3789 89.9712C31.3789 91.7748 32.841 93.2368 34.6446 93.2368C36.4481 93.2368 37.9102 91.7748 37.9102 89.9712C37.9102 88.1677 36.4481 86.7056 34.6446 86.7056Z" fill="#4A5056"/>
<path d="M54.6236 86.7056C52.82 86.7056 51.3579 88.1677 51.3579 89.9712C51.3579 91.7748 52.82 93.2368 54.6236 93.2368C56.4271 93.2368 57.8892 91.7748 57.8892 89.9712C57.8892 88.1677 56.4271 86.7056 54.6236 86.7056Z" fill="#4A5056"/>
<path d="M54.6236 68.2637C52.82 68.2637 51.3579 69.7258 51.3579 71.5293C51.3579 73.3329 52.82 74.7949 54.6236 74.7949C56.4271 74.7949 57.8892 73.3329 57.8892 71.5293C57.8892 69.7258 56.4271 68.2637 54.6236 68.2637Z" fill="#4A5056"/>
<path d="M34.6446 68.2637C32.841 68.2637 31.3789 69.7258 31.3789 71.5293C31.3789 73.3329 32.841 74.7949 34.6446 74.7949C36.4481 74.7949 37.9102 73.3329 37.9102 71.5293C37.9102 69.7258 36.4481 68.2637 34.6446 68.2637Z" fill="#4A5056"/>
<path d="M70.7603 50.5899C68.9567 50.5899 67.4947 52.0519 67.4947 53.8555C67.4947 55.659 68.9567 57.1211 70.7603 57.1211C72.5638 57.1211 74.0259 55.659 74.0259 53.8555C74.0259 52.0519 72.5638 50.5899 70.7603 50.5899Z" fill="#4A5056"/>
<path d="M90.7393 50.5899C88.9357 50.5899 87.4737 52.0519 87.4737 53.8555C87.4737 55.659 88.9357 57.1211 90.7393 57.1211C92.5428 57.1211 94.0049 55.659 94.0049 53.8555C94.0049 52.0519 92.5428 50.5899 90.7393 50.5899Z" fill="#4A5056"/>
<path d="M90.7393 32.148C88.9357 32.148 87.4737 33.61 87.4737 35.4136C87.4737 37.2171 88.9357 38.6792 90.7393 38.6792C92.5428 38.6792 94.0049 37.2171 94.0049 35.4136C94.0049 33.61 92.5428 32.148 90.7393 32.148Z" fill="#4A5056"/>
<path d="M70.7603 32.148C68.9567 32.148 67.4947 33.61 67.4947 35.4136C67.4947 37.2171 68.9567 38.6792 70.7603 38.6792C72.5638 38.6792 74.0259 37.2171 74.0259 35.4136C74.0259 33.61 72.5638 32.148 70.7603 32.148Z" fill="#4A5056"/>
<path d="M34.4526 35.2212H54.8158" stroke="#4A5056"/>
<path d="M34.4526 89.7788H54.8158" stroke="#4A5056"/>
<path d="M90.9316 35.2212L90.9316 55.2001" stroke="#4A5056"/>
<rect x="26.5" y="26.5" width="72" height="72" rx="2.5" stroke="#4A5056"/>
</g>
<defs>
<clipPath id="clip0_532_24186">
<rect width="125" height="125" fill="white"/>
</clipPath>
</defs>
</svg>
