<svg width="32" height="32" viewBox="0 0 32 32" fill="none" xmlns="http://www.w3.org/2000/svg">
<circle cx="13" cy="20" r="3" fill="#2F2727"/>
<path d="M12 19.2164L13.4091 20.6667L16 18" stroke="#FDFDFD"/>
<path fill-rule="evenodd" clip-rule="evenodd" d="M23.6316 7H14V9H20.6316C21.1838 9 21.6316 9.44772 21.6316 10V20.8266H23.6316V7ZM13 7V9H11C10.4477 9 10 9.44771 10 10V13H11L11 10H12.6309H13H14H20.6309H20.6316V20.8266H20.6309V21.8266H20.6316V23.8266H19V24.8266H20.6316C21.1839 24.8266 21.6316 24.3788 21.6316 23.8266V21.8266H23.6316C24.1839 21.8266 24.6316 21.3788 24.6316 20.8266V7C24.6316 6.44772 24.1838 6 23.6316 6H14C13.4477 6 13 6.44771 13 7Z" fill="black"/>
<rect x="7.5" y="12.5" width="11" height="14" rx="0.5" stroke="black"/>
</svg>
