<svg width="125" height="125" viewBox="0 0 125 125" fill="none" xmlns="http://www.w3.org/2000/svg">
<g clip-path="url(#clip0_532_23520)">
<path d="M61.4951 24.2984L29.4913 43.2097C29.1868 43.3896 29 43.717 29 44.0706V81.4367C29 81.7864 29.1827 82.1107 29.4817 82.2919L61.4856 101.688C61.8021 101.88 62.1987 101.881 62.5165 101.692L95.0126 82.291C95.3149 82.1105 95.5 81.7844 95.5 81.4324V44.075C95.5 43.719 95.3107 43.3898 95.0031 43.2107L62.5069 24.295C62.1939 24.1129 61.8069 24.1141 61.4951 24.2984Z" fill="white"/>
<path fill-rule="evenodd" clip-rule="evenodd" d="M61.9564 23.2539L96.1548 43.0791V82.2319L61.9563 102.553L28.25 82.2299V43.0812L61.9564 23.2539ZM61.9599 24.3853L29.227 43.64V81.6781L61.96 101.414L95.1778 81.676V43.6421L61.9599 24.3853Z" fill="#4A5056"/>
<path fill-rule="evenodd" clip-rule="evenodd" d="M95.9159 43.7814L61.9564 63.9602L28.4863 43.7797L28.9908 42.943L61.96 62.8215L95.4168 42.9414L95.9159 43.7814Z" fill="#4A5056"/>
<path fill-rule="evenodd" clip-rule="evenodd" d="M62.4468 63.3901V101.495H61.4697V63.3901H62.4468Z" fill="#4A5056"/>
<path d="M57.5251 42.7239C55.2159 42.8933 53.1582 42.7309 51.5925 40.8198C51.518 40.7288 51.4297 40.5787 51.3365 40.287L51.2713 39.9881C51.2351 39.8058 51.2355 39.6408 51.2629 39.4616C51.4564 38.195 52.4895 37.5548 53.591 37.1451C54.2864 36.8865 55.0364 36.6658 55.7653 36.6534C57.2011 36.6289 58.5921 36.8942 59.8651 37.7082C60.7474 38.2724 61.1825 38.991 61.0566 40.0681C61.0176 40.4081 61.1739 40.7399 61.4558 40.9151C62.6832 41.6779 63.9306 42.453 65.248 43.2717C65.3963 43.3639 65.5683 43.413 65.7407 43.405C67.5868 43.3195 69.4601 42.7229 71.5725 42.5583C71.8211 42.5389 72.0584 42.489 72.2052 42.2111C72.2961 42.039 72.455 41.8791 72.5937 41.7061C73.1146 41.0566 73.7902 40.6728 74.5662 40.4478C76.5973 39.859 78.5567 39.9833 80.4124 41.0842C81.1845 41.5422 81.7624 42.1465 81.7254 43.1833C81.7098 43.6175 81.5763 43.9785 81.333 44.3116C80.6007 45.3146 79.5565 45.7693 78.4356 46.0558C77.1785 46.3772 75.9259 46.3081 74.6981 45.8694C74.362 45.7494 74.0385 45.5878 73.6983 45.4842C73.3609 45.3815 73.0013 45.2364 72.6663 45.2702C71.7328 45.3641 70.806 45.535 69.8783 45.6869C69.0462 45.8232 68.2156 45.9705 67.2658 46.1351C67.0419 46.1739 66.8407 46.3013 66.7032 46.4897C66.6396 46.5771 66.5759 46.6759 66.5269 46.7822C66.1425 47.6166 65.6696 48.4115 65.3402 49.2727C65.2014 49.6356 65.2944 50.0516 65.5765 50.3085C65.6898 50.4118 65.7971 50.5123 65.8998 50.6177C66.9461 51.6905 66.85 53.1823 65.647 54.0397C64.0729 55.1615 62.3536 55.4969 60.4574 55.1507C59.4055 54.9586 58.476 54.601 57.6892 53.931C57.2599 53.5654 56.9517 53.0674 56.783 52.5167C56.7516 52.3162 56.7659 52.0619 56.7966 51.8891L56.8288 51.7428C56.867 51.5698 56.9264 51.4018 57.0136 51.2494C57.0337 51.2144 57.0531 51.1838 57.0701 51.1615C57.8516 50.1349 58.9077 49.6352 60.1633 49.3309C60.3869 49.2767 60.583 49.1324 60.7039 48.9288C61.2011 48.0911 61.6332 47.1722 62.0123 46.1742C62.1716 45.7548 62.0114 45.2754 61.6381 45.0479L58.0227 42.8437C57.8724 42.7521 57.6987 42.7112 57.5251 42.7239L57.5251 42.7239Z" fill="#4A5056"/>
<path d="M88.4821 67.608C88.6473 70.2066 87.7242 72.7029 86.5865 75.1132C85.9456 76.471 85.2065 77.7799 84.3032 78.9919C83.9793 79.4266 83.6751 79.8808 83.3077 80.2779C82.0243 81.6653 80.7061 83.028 79.082 84.0395C77.5372 85.0017 75.8778 85.7411 74.0097 85.7645C71.1707 85.8 69.388 84.1712 68.6421 81.7724C68.223 80.4248 68.0907 79.02 68.235 77.6199C68.4433 75.5981 68.9203 73.637 69.7672 71.7645C70.3996 70.3665 71.1217 69.0263 71.9828 67.7506C73.2307 65.9019 74.7574 64.3234 76.5044 62.9175C77.934 61.7669 79.4964 60.9216 81.297 60.5398C82.8989 60.2001 84.4648 60.3077 85.8864 61.2033C86.5548 61.6243 87.0302 62.2407 87.4126 62.9128C88.053 64.0382 88.247 65.2307 88.4052 66.5448C88.4252 66.8865 88.4785 67.2581 88.4821 67.608V67.608ZM82.4335 66.7918C81.7595 66.3059 80.887 66.1674 80.0723 66.3536C79.628 66.4551 79.1609 66.5752 78.757 66.8031C76.6197 68.0095 75.1141 69.7891 74.0477 71.9807C73.4796 73.1482 73.1525 74.3585 72.9632 75.6062C72.8041 76.6544 72.9605 77.7057 73.5069 78.6505C74.0818 79.6444 74.994 80.1687 76.1431 80.1363C77.1007 80.1093 77.9729 79.6678 78.7397 79.1477C81.1883 77.4871 82.6787 75.1428 83.4777 72.3681C83.6623 71.7274 83.7246 71.0528 83.804 70.4631C83.835 70.2323 83.838 69.999 83.8138 69.7674C83.6833 68.5196 83.3526 67.4545 82.4335 66.7918Z" fill="#4A5056"/>
<path d="M41.9248 67.8198C41.8908 71.076 39.496 73.6742 36.5758 73.623C33.6557 73.5719 31.316 70.8908 31.35 67.6346C31.3841 64.3784 33.7789 61.7802 36.699 61.8314C39.6191 61.8825 41.9588 64.5637 41.9248 67.8198Z" fill="#4A5056"/>
<path d="M58.3936 76.854C58.3595 80.1102 55.9647 82.7084 53.0446 82.6572C50.1245 82.6061 47.7848 79.9249 47.8188 76.6688C47.8528 73.4126 50.2476 70.8144 53.1678 70.8656C56.0879 70.9167 58.4276 73.5978 58.3936 76.854Z" fill="#4A5056"/>
<path d="M49.8286 73.306L41.0397 68.0654L39.7717 71.2907L48.5683 76.7178L49.8286 73.306Z" fill="#4A5056"/>
</g>
<defs>
<clipPath id="clip0_532_23520">
<rect width="125" height="125" fill="white"/>
</clipPath>
</defs>
</svg>
